<svg xmlns="http://www.w3.org/2000/svg" viewBox="0 0 900 577" width="900" height="577" role="img" aria-label="GitHub activity: 837 contributions in the last 12 months">
<defs>
  <filter id="blur" x="-60%" y="-60%" width="220%" height="220%"><feGaussianBlur stdDeviation="48"/></filter>
  <filter id="soft" x="-60%" y="-60%" width="220%" height="220%"><feGaussianBlur stdDeviation="7"/></filter>
  <filter id="grain" x="0" y="0" width="100%" height="100%">
    <feTurbulence type="fractalNoise" baseFrequency=".85" numOctaves="2" stitchTiles="stitch"/>
    <feColorMatrix type="saturate" values="0"/>
  </filter>
  <pattern id="dots" width="22" height="22" patternUnits="userSpaceOnUse">
    <circle cx="1.2" cy="1.2" r="1.2" fill="#2b333e"/>
  </pattern><clipPath id="card"><rect x="1" y="1" width="898" height="575" rx="18"/></clipPath>
  <clipPath id="bar"><rect x="32" y="483" width="836" height="12" rx="6"/></clipPath></defs>
<style>
  .t { font-family:-apple-system,BlinkMacSystemFont,'Segoe UI',Inter,Roboto,'Helvetica Neue',Arial,sans-serif; } .m { font-family:ui-monospace,'SF Mono','JetBrains Mono','Cascadia Code',Menlo,Consolas,monospace; }
  .rise { opacity:0; animation:rise .7s cubic-bezier(.2,.7,.3,1) forwards; }
  @keyframes rise { from { opacity:0; transform:translateY(9px); } to { opacity:1; transform:none; } }
  .cell { animation:pop .5s cubic-bezier(.2,.7,.3,1) backwards; transform-box:fill-box; transform-origin:center; }
  @keyframes pop { from { opacity:0; transform:scale(.3); } }

  @media (prefers-reduced-motion: reduce) {
    * { animation: none !important; }
  }
</style>
<g clip-path="url(#card)">
  <rect width="900" height="577" fill="#0b0f15"/>
  <g filter="url(#blur)"><circle cx="120" cy="40" r="130" fill="#2dd4bf" opacity="0.1925"><animateTransform attributeName="transform" type="translate" values="0 0;80 30;0 0" dur="24s" repeatCount="indefinite" calcMode="spline" keySplines=".45 0 .55 1;.45 0 .55 1"/></circle></g>
  <g class="rise" style="animation-delay:0.00s"><rect x="32" y="28" width="204" height="104" rx="18" fill="#121821" fill-opacity=".7" stroke="#232b36"/><circle cx="206" cy="56" r="34" fill="#2dd4bf" opacity="0.28" filter="url(#soft)"/><text class="m" x="52" y="56" fill="#8b96a3" font-size="10.5" letter-spacing="1.8">CONTRIBUTIONS</text><text class="t" x="50" y="100" fill="#e8eef5" font-size="38" font-weight="800" letter-spacing="-1.4">837</text><rect x="52" y="112" width="26" height="3" rx="1.5" fill="#2dd4bf"/><text class="t" x="86" y="116" fill="#8b96a3" font-size="11">last 12 months</text></g><g class="rise" style="animation-delay:0.08s"><rect x="246" y="28" width="204" height="104" rx="18" fill="#121821" fill-opacity=".7" stroke="#232b36"/><circle cx="420" cy="56" r="34" fill="#3aa7ff" opacity="0.28" filter="url(#soft)"/><text class="m" x="266" y="56" fill="#8b96a3" font-size="10.5" letter-spacing="1.8">COMMITS</text><text class="t" x="264" y="100" fill="#e8eef5" font-size="38" font-weight="800" letter-spacing="-1.4">744</text><rect x="266" y="112" width="26" height="3" rx="1.5" fill="#3aa7ff"/><text class="t" x="300" y="116" fill="#8b96a3" font-size="11">incl. private repos</text></g><g class="rise" style="animation-delay:0.16s"><rect x="460" y="28" width="204" height="104" rx="18" fill="#121821" fill-opacity=".7" stroke="#232b36"/><circle cx="634" cy="56" r="34" fill="#8b7bff" opacity="0.28" filter="url(#soft)"/><text class="m" x="480" y="56" fill="#8b96a3" font-size="10.5" letter-spacing="1.8">PULL REQUESTS</text><text class="t" x="478" y="100" fill="#e8eef5" font-size="38" font-weight="800" letter-spacing="-1.4">45</text><rect x="480" y="112" width="26" height="3" rx="1.5" fill="#8b7bff"/><text class="t" x="514" y="116" fill="#8b96a3" font-size="11">opened</text></g><g class="rise" style="animation-delay:0.24s"><rect x="674" y="28" width="204" height="104" rx="18" fill="#121821" fill-opacity=".7" stroke="#232b36"/><circle cx="848" cy="56" r="34" fill="#ff4fa3" opacity="0.28" filter="url(#soft)"/><text class="m" x="694" y="56" fill="#8b96a3" font-size="10.5" letter-spacing="1.8">REPOSITORIES</text><text class="t" x="692" y="100" fill="#e8eef5" font-size="38" font-weight="800" letter-spacing="-1.4">48</text><rect x="694" y="112" width="26" height="3" rx="1.5" fill="#ff4fa3"/><text class="t" x="728" y="116" fill="#8b96a3" font-size="11">owned, not forks</text></g>
  <text class="m" x="119.0" y="186" fill="#8b96a3" font-size="10.5">Apr</text><text class="m" x="235.0" y="186" fill="#8b96a3" font-size="10.5">May</text><text class="m" x="380.0" y="186" fill="#8b96a3" font-size="10.5">Jun</text><text class="m" x="496.0" y="186" fill="#8b96a3" font-size="10.5">Jul</text><text class="m" x="612.0" y="186" fill="#8b96a3" font-size="10.5">Aug</text><text class="m" x="757.0" y="186" fill="#8b96a3" font-size="10.5">Sep</text><text class="m" x="78" y="241.0" fill="#8b96a3" font-size="9.5" text-anchor="end">Mon</text><text class="m" x="78" y="299.0" fill="#8b96a3" font-size="9.5" text-anchor="end">Wed</text><text class="m" x="78" y="357.0" fill="#8b96a3" font-size="9.5" text-anchor="end">Fri</text>
  <rect x="90.0" y="196.0" width="24" height="24" rx="6" fill="#161b22" class="cell" style="animation-delay:0.000s"/><rect x="90.0" y="225.0" width="24" height="24" rx="6" fill="#161b22" class="cell" style="animation-delay:0.000s"/><rect x="90.0" y="254.0" width="24" height="24" rx="6" fill="#161b22" class="cell" style="animation-delay:0.000s"/><rect x="90.0" y="283.0" width="24" height="24" rx="6" fill="#161b22" class="cell" style="animation-delay:0.000s"/><rect x="90.0" y="312.0" width="24" height="24" rx="6" fill="#161b22" class="cell" style="animation-delay:0.000s"/><rect x="90.0" y="341.0" width="24" height="24" rx="6" fill="#161b22" class="cell" style="animation-delay:0.000s"/><rect x="90.0" y="370.0" width="24" height="24" rx="6" fill="#0f4a55" class="cell" style="animation-delay:0.000s"/><rect x="119.0" y="196.0" width="24" height="24" rx="6" fill="#161b22" class="cell" style="animation-delay:0.012s"/><rect x="119.0" y="225.0" width="24" height="24" rx="6" fill="#161b22" class="cell" style="animation-delay:0.012s"/><rect x="119.0" y="254.0" width="24" height="24" rx="6" fill="#161b22" class="cell" style="animation-delay:0.012s"/><rect x="119.0" y="283.0" width="24" height="24" rx="6" fill="#161b22" class="cell" style="animation-delay:0.012s"/><rect x="119.0" y="312.0" width="24" height="24" rx="6" fill="#161b22" class="cell" style="animation-delay:0.012s"/><rect x="119.0" y="341.0" width="24" height="24" rx="6" fill="#161b22" class="cell" style="animation-delay:0.012s"/><rect x="119.0" y="370.0" width="24" height="24" rx="6" fill="#161b22" class="cell" style="animation-delay:0.012s"/><rect x="148.0" y="196.0" width="24" height="24" rx="6" fill="#161b22" class="cell" style="animation-delay:0.024s"/><rect x="148.0" y="225.0" width="24" height="24" rx="6" fill="#161b22" class="cell" style="animation-delay:0.024s"/><rect x="148.0" y="254.0" width="24" height="24" rx="6" fill="#161b22" class="cell" style="animation-delay:0.024s"/><rect x="148.0" y="283.0" width="24" height="24" rx="6" fill="#161b22" class="cell" style="animation-delay:0.024s"/><rect x="148.0" y="312.0" width="24" height="24" rx="6" fill="#161b22" class="cell" style="animation-delay:0.024s"/><rect x="148.0" y="341.0" width="24" height="24" rx="6" fill="#161b22" class="cell" style="animation-delay:0.024s"/><rect x="148.0" y="370.0" width="24" height="24" rx="6" fill="#161b22" class="cell" style="animation-delay:0.024s"/><rect x="177.0" y="196.0" width="24" height="24" rx="6" fill="#161b22" class="cell" style="animation-delay:0.036s"/><rect x="177.0" y="225.0" width="24" height="24" rx="6" fill="#161b22" class="cell" style="animation-delay:0.036s"/><rect x="177.0" y="254.0" width="24" height="24" rx="6" fill="#161b22" class="cell" style="animation-delay:0.036s"/><rect x="177.0" y="283.0" width="24" height="24" rx="6" fill="#161b22" class="cell" style="animation-delay:0.036s"/><rect x="177.0" y="312.0" width="24" height="24" rx="6" fill="#161b22" class="cell" style="animation-delay:0.036s"/><rect x="177.0" y="341.0" width="24" height="24" rx="6" fill="#161b22" class="cell" style="animation-delay:0.036s"/><rect x="177.0" y="370.0" width="24" height="24" rx="6" fill="#161b22" class="cell" style="animation-delay:0.036s"/><rect x="206.0" y="196.0" width="24" height="24" rx="6" fill="#161b22" class="cell" style="animation-delay:0.048s"/><rect x="206.0" y="225.0" width="24" height="24" rx="6" fill="#161b22" class="cell" style="animation-delay:0.048s"/><rect x="206.0" y="254.0" width="24" height="24" rx="6" fill="#161b22" class="cell" style="animation-delay:0.048s"/><rect x="206.0" y="283.0" width="24" height="24" rx="6" fill="#161b22" class="cell" style="animation-delay:0.048s"/><rect x="206.0" y="312.0" width="24" height="24" rx="6" fill="#161b22" class="cell" style="animation-delay:0.048s"/><rect x="206.0" y="341.0" width="24" height="24" rx="6" fill="#161b22" class="cell" style="animation-delay:0.048s"/><rect x="206.0" y="370.0" width="24" height="24" rx="6" fill="#161b22" class="cell" style="animation-delay:0.048s"/><rect x="235.0" y="196.0" width="24" height="24" rx="6" fill="#161b22" class="cell" style="animation-delay:0.060s"/><rect x="235.0" y="225.0" width="24" height="24" rx="6" fill="#161b22" class="cell" style="animation-delay:0.060s"/><rect x="235.0" y="254.0" width="24" height="24" rx="6" fill="#161b22" class="cell" style="animation-delay:0.060s"/><rect x="235.0" y="283.0" width="24" height="24" rx="6" fill="#161b22" class="cell" style="animation-delay:0.060s"/><rect x="235.0" y="312.0" width="24" height="24" rx="6" fill="#161b22" class="cell" style="animation-delay:0.060s"/><rect x="235.0" y="341.0" width="24" height="24" rx="6" fill="#161b22" class="cell" style="animation-delay:0.060s"/><rect x="235.0" y="370.0" width="24" height="24" rx="6" fill="#161b22" class="cell" style="animation-delay:0.060s"/><rect x="264.0" y="196.0" width="24" height="24" rx="6" fill="#161b22" class="cell" style="animation-delay:0.072s"/><rect x="264.0" y="225.0" width="24" height="24" rx="6" fill="#161b22" class="cell" style="animation-delay:0.072s"/><rect x="264.0" y="254.0" width="24" height="24" rx="6" fill="#161b22" class="cell" style="animation-delay:0.072s"/><rect x="264.0" y="283.0" width="24" height="24" rx="6" fill="#161b22" class="cell" style="animation-delay:0.072s"/><rect x="264.0" y="312.0" width="24" height="24" rx="6" fill="#161b22" class="cell" style="animation-delay:0.072s"/><rect x="264.0" y="341.0" width="24" height="24" rx="6" fill="#161b22" class="cell" style="animation-delay:0.072s"/><rect x="264.0" y="370.0" width="24" height="24" rx="6" fill="#161b22" class="cell" style="animation-delay:0.072s"/><rect x="293.0" y="196.0" width="24" height="24" rx="6" fill="#161b22" class="cell" style="animation-delay:0.084s"/><rect x="293.0" y="225.0" width="24" height="24" rx="6" fill="#161b22" class="cell" style="animation-delay:0.084s"/><rect x="293.0" y="254.0" width="24" height="24" rx="6" fill="#161b22" class="cell" style="animation-delay:0.084s"/><rect x="293.0" y="283.0" width="24" height="24" rx="6" fill="#161b22" class="cell" style="animation-delay:0.084s"/><rect x="293.0" y="312.0" width="24" height="24" rx="6" fill="#161b22" class="cell" style="animation-delay:0.084s"/><rect x="293.0" y="341.0" width="24" height="24" rx="6" fill="#161b22" class="cell" style="animation-delay:0.084s"/><rect x="293.0" y="370.0" width="24" height="24" rx="6" fill="#161b22" class="cell" style="animation-delay:0.084s"/><rect x="322.0" y="196.0" width="24" height="24" rx="6" fill="#161b22" class="cell" style="animation-delay:0.096s"/><rect x="322.0" y="225.0" width="24" height="24" rx="6" fill="#161b22" class="cell" style="animation-delay:0.096s"/><rect x="322.0" y="254.0" width="24" height="24" rx="6" fill="#0f4a55" class="cell" style="animation-delay:0.096s"/><rect x="322.0" y="283.0" width="24" height="24" rx="6" fill="#14899a" class="cell" style="animation-delay:0.096s"/><rect x="322.0" y="312.0" width="24" height="24" rx="6" fill="#161b22" class="cell" style="animation-delay:0.096s"/><rect x="322.0" y="341.0" width="24" height="24" rx="6" fill="#161b22" class="cell" style="animation-delay:0.096s"/><rect x="322.0" y="370.0" width="24" height="24" rx="6" fill="#161b22" class="cell" style="animation-delay:0.096s"/><rect x="351.0" y="196.0" width="24" height="24" rx="6" fill="#161b22" class="cell" style="animation-delay:0.108s"/><rect x="351.0" y="225.0" width="24" height="24" rx="6" fill="#0f4a55" class="cell" style="animation-delay:0.108s"/><rect x="351.0" y="254.0" width="24" height="24" rx="6" fill="#161b22" class="cell" style="animation-delay:0.108s"/><rect x="351.0" y="283.0" width="24" height="24" rx="6" fill="#161b22" class="cell" style="animation-delay:0.108s"/><rect x="351.0" y="312.0" width="24" height="24" rx="6" fill="#161b22" class="cell" style="animation-delay:0.108s"/><rect x="351.0" y="341.0" width="24" height="24" rx="6" fill="#161b22" class="cell" style="animation-delay:0.108s"/><rect x="351.0" y="370.0" width="24" height="24" rx="6" fill="#161b22" class="cell" style="animation-delay:0.108s"/><rect x="380.0" y="196.0" width="24" height="24" rx="6" fill="#161b22" class="cell" style="animation-delay:0.120s"/><rect x="380.0" y="225.0" width="24" height="24" rx="6" fill="#161b22" class="cell" style="animation-delay:0.120s"/><rect x="380.0" y="254.0" width="24" height="24" rx="6" fill="#161b22" class="cell" style="animation-delay:0.120s"/><rect x="380.0" y="283.0" width="24" height="24" rx="6" fill="#161b22" class="cell" style="animation-delay:0.120s"/><rect x="380.0" y="312.0" width="24" height="24" rx="6" fill="#161b22" class="cell" style="animation-delay:0.120s"/><rect x="380.0" y="341.0" width="24" height="24" rx="6" fill="#161b22" class="cell" style="animation-delay:0.120s"/><rect x="380.0" y="370.0" width="24" height="24" rx="6" fill="#161b22" class="cell" style="animation-delay:0.120s"/><rect x="409.0" y="196.0" width="24" height="24" rx="6" fill="#161b22" class="cell" style="animation-delay:0.132s"/><rect x="409.0" y="225.0" width="24" height="24" rx="6" fill="#161b22" class="cell" style="animation-delay:0.132s"/><rect x="409.0" y="254.0" width="24" height="24" rx="6" fill="#161b22" class="cell" style="animation-delay:0.132s"/><rect x="409.0" y="283.0" width="24" height="24" rx="6" fill="#161b22" class="cell" style="animation-delay:0.132s"/><rect x="409.0" y="312.0" width="24" height="24" rx="6" fill="#161b22" class="cell" style="animation-delay:0.132s"/><rect x="409.0" y="341.0" width="24" height="24" rx="6" fill="#161b22" class="cell" style="animation-delay:0.132s"/><rect x="409.0" y="370.0" width="24" height="24" rx="6" fill="#161b22" class="cell" style="animation-delay:0.132s"/><rect x="438.0" y="196.0" width="24" height="24" rx="6" fill="#161b22" class="cell" style="animation-delay:0.144s"/><rect x="438.0" y="225.0" width="24" height="24" rx="6" fill="#161b22" class="cell" style="animation-delay:0.144s"/><rect x="438.0" y="254.0" width="24" height="24" rx="6" fill="#161b22" class="cell" style="animation-delay:0.144s"/><rect x="438.0" y="283.0" width="24" height="24" rx="6" fill="#161b22" class="cell" style="animation-delay:0.144s"/><rect x="438.0" y="312.0" width="24" height="24" rx="6" fill="#161b22" class="cell" style="animation-delay:0.144s"/><rect x="438.0" y="341.0" width="24" height="24" rx="6" fill="#161b22" class="cell" style="animation-delay:0.144s"/><rect x="438.0" y="370.0" width="24" height="24" rx="6" fill="#161b22" class="cell" style="animation-delay:0.144s"/><rect x="467.0" y="196.0" width="24" height="24" rx="6" fill="#161b22" class="cell" style="animation-delay:0.156s"/><rect x="467.0" y="225.0" width="24" height="24" rx="6" fill="#161b22" class="cell" style="animation-delay:0.156s"/><rect x="467.0" y="254.0" width="24" height="24" rx="6" fill="#0f4a55" class="cell" style="animation-delay:0.156s"/><rect x="467.0" y="283.0" width="24" height="24" rx="6" fill="#161b22" class="cell" style="animation-delay:0.156s"/><rect x="467.0" y="312.0" width="24" height="24" rx="6" fill="#0f4a55" class="cell" style="animation-delay:0.156s"/><rect x="467.0" y="341.0" width="24" height="24" rx="6" fill="#161b22" class="cell" style="animation-delay:0.156s"/><rect x="467.0" y="370.0" width="24" height="24" rx="6" fill="#161b22" class="cell" style="animation-delay:0.156s"/><rect x="496.0" y="196.0" width="24" height="24" rx="6" fill="#161b22" class="cell" style="animation-delay:0.168s"/><rect x="496.0" y="225.0" width="24" height="24" rx="6" fill="#161b22" class="cell" style="animation-delay:0.168s"/><rect x="496.0" y="254.0" width="24" height="24" rx="6" fill="#0f4a55" class="cell" style="animation-delay:0.168s"/><rect x="496.0" y="283.0" width="24" height="24" rx="6" fill="#161b22" class="cell" style="animation-delay:0.168s"/><rect x="496.0" y="312.0" width="24" height="24" rx="6" fill="#161b22" class="cell" style="animation-delay:0.168s"/><rect x="496.0" y="341.0" width="24" height="24" rx="6" fill="#161b22" class="cell" style="animation-delay:0.168s"/><rect x="496.0" y="370.0" width="24" height="24" rx="6" fill="#161b22" class="cell" style="animation-delay:0.168s"/><rect x="525.0" y="196.0" width="24" height="24" rx="6" fill="#14899a" class="cell" style="animation-delay:0.180s"/><rect x="525.0" y="225.0" width="24" height="24" rx="6" fill="#14899a" class="cell" style="animation-delay:0.180s"/><rect x="525.0" y="254.0" width="24" height="24" rx="6" fill="#14899a" class="cell" style="animation-delay:0.180s"/><rect x="525.0" y="283.0" width="24" height="24" rx="6" fill="#0f4a55" class="cell" style="animation-delay:0.180s"/><rect x="525.0" y="312.0" width="24" height="24" rx="6" fill="#161b22" class="cell" style="animation-delay:0.180s"/><rect x="525.0" y="341.0" width="24" height="24" rx="6" fill="#161b22" class="cell" style="animation-delay:0.180s"/><rect x="525.0" y="370.0" width="24" height="24" rx="6" fill="#161b22" class="cell" style="animation-delay:0.180s"/><rect x="554.0" y="196.0" width="24" height="24" rx="6" fill="#161b22" class="cell" style="animation-delay:0.192s"/><rect x="554.0" y="225.0" width="24" height="24" rx="6" fill="#14899a" class="cell" style="animation-delay:0.192s"/><rect x="554.0" y="254.0" width="24" height="24" rx="6" fill="#14899a" class="cell" style="animation-delay:0.192s"/><rect x="554.0" y="283.0" width="24" height="24" rx="6" fill="#3a9bff" class="cell" style="animation-delay:0.192s"/><rect x="554.0" y="312.0" width="24" height="24" rx="6" fill="#0f4a55" class="cell" style="animation-delay:0.192s"/><rect x="554.0" y="341.0" width="24" height="24" rx="6" fill="#0f4a55" class="cell" style="animation-delay:0.192s"/><rect x="554.0" y="370.0" width="24" height="24" rx="6" fill="#14899a" class="cell" style="animation-delay:0.192s"/><rect x="583.0" y="196.0" width="24" height="24" rx="6" fill="#0f4a55" class="cell" style="animation-delay:0.204s"/><rect x="583.0" y="225.0" width="24" height="24" rx="6" fill="#14899a" class="cell" style="animation-delay:0.204s"/><rect x="583.0" y="254.0" width="24" height="24" rx="6" fill="#14899a" class="cell" style="animation-delay:0.204s"/><rect x="583.0" y="283.0" width="24" height="24" rx="6" fill="#14899a" class="cell" style="animation-delay:0.204s"/><rect x="583.0" y="312.0" width="24" height="24" rx="6" fill="#161b22" class="cell" style="animation-delay:0.204s"/><rect x="583.0" y="341.0" width="24" height="24" rx="6" fill="#161b22" class="cell" style="animation-delay:0.204s"/><rect x="583.0" y="370.0" width="24" height="24" rx="6" fill="#161b22" class="cell" style="animation-delay:0.204s"/><rect x="612.0" y="196.0" width="24" height="24" rx="6" fill="#0f4a55" class="cell" style="animation-delay:0.216s"/><rect x="612.0" y="225.0" width="24" height="24" rx="6" fill="#14899a" class="cell" style="animation-delay:0.216s"/><rect x="612.0" y="254.0" width="24" height="24" rx="6" fill="#14899a" class="cell" style="animation-delay:0.216s"/><rect x="612.0" y="283.0" width="24" height="24" rx="6" fill="#14899a" class="cell" style="animation-delay:0.216s"/><rect x="612.0" y="312.0" width="24" height="24" rx="6" fill="#8b7bff" class="cell" style="animation-delay:0.216s"/><rect x="612.0" y="341.0" width="24" height="24" rx="6" fill="#14899a" class="cell" style="animation-delay:0.216s"/><rect x="612.0" y="370.0" width="24" height="24" rx="6" fill="#8b7bff" class="cell" style="animation-delay:0.216s"/><rect x="641.0" y="196.0" width="24" height="24" rx="6" fill="#3a9bff" class="cell" style="animation-delay:0.228s"/><rect x="641.0" y="225.0" width="24" height="24" rx="6" fill="#3a9bff" class="cell" style="animation-delay:0.228s"/><rect x="641.0" y="254.0" width="24" height="24" rx="6" fill="#14899a" class="cell" style="animation-delay:0.228s"/><rect x="641.0" y="283.0" width="24" height="24" rx="6" fill="#14899a" class="cell" style="animation-delay:0.228s"/><rect x="641.0" y="312.0" width="24" height="24" rx="6" fill="#3a9bff" class="cell" style="animation-delay:0.228s"/><rect x="641.0" y="341.0" width="24" height="24" rx="6" fill="#161b22" class="cell" style="animation-delay:0.228s"/><rect x="641.0" y="370.0" width="24" height="24" rx="6" fill="#14899a" class="cell" style="animation-delay:0.228s"/><rect x="670.0" y="196.0" width="24" height="24" rx="6" fill="#161b22" class="cell" style="animation-delay:0.240s"/><rect x="670.0" y="225.0" width="24" height="24" rx="6" fill="#3a9bff" class="cell" style="animation-delay:0.240s"/><rect x="670.0" y="254.0" width="24" height="24" rx="6" fill="#14899a" class="cell" style="animation-delay:0.240s"/><rect x="670.0" y="283.0" width="24" height="24" rx="6" fill="#161b22" class="cell" style="animation-delay:0.240s"/><rect x="670.0" y="312.0" width="24" height="24" rx="6" fill="#161b22" class="cell" style="animation-delay:0.240s"/><rect x="670.0" y="341.0" width="24" height="24" rx="6" fill="#3a9bff" class="cell" style="animation-delay:0.240s"/><rect x="670.0" y="370.0" width="24" height="24" rx="6" fill="#0f4a55" class="cell" style="animation-delay:0.240s"/><rect x="699.0" y="196.0" width="24" height="24" rx="6" fill="#0f4a55" class="cell" style="animation-delay:0.252s"/><rect x="699.0" y="225.0" width="24" height="24" rx="6" fill="#0f4a55" class="cell" style="animation-delay:0.252s"/><rect x="699.0" y="254.0" width="24" height="24" rx="6" fill="#14899a" class="cell" style="animation-delay:0.252s"/><rect x="699.0" y="283.0" width="24" height="24" rx="6" fill="#0f4a55" class="cell" style="animation-delay:0.252s"/><rect x="699.0" y="312.0" width="24" height="24" rx="6" fill="#0f4a55" class="cell" style="animation-delay:0.252s"/><rect x="699.0" y="341.0" width="24" height="24" rx="6" fill="#14899a" class="cell" style="animation-delay:0.252s"/><rect x="699.0" y="370.0" width="24" height="24" rx="6" fill="#14899a" class="cell" style="animation-delay:0.252s"/><rect x="728.0" y="196.0" width="24" height="24" rx="6" fill="#14899a" class="cell" style="animation-delay:0.264s"/><rect x="728.0" y="225.0" width="24" height="24" rx="6" fill="#3a9bff" class="cell" style="animation-delay:0.264s"/><rect x="728.0" y="254.0" width="24" height="24" rx="6" fill="#0f4a55" class="cell" style="animation-delay:0.264s"/><rect x="728.0" y="283.0" width="24" height="24" rx="6" fill="#3a9bff" class="cell" style="animation-delay:0.264s"/><rect x="728.0" y="312.0" width="24" height="24" rx="6" fill="#3a9bff" class="cell" style="animation-delay:0.264s"/><rect x="728.0" y="341.0" width="24" height="24" rx="6" fill="#14899a" class="cell" style="animation-delay:0.264s"/><rect x="728.0" y="370.0" width="24" height="24" rx="6" fill="#3a9bff" class="cell" style="animation-delay:0.264s"/><rect x="757.0" y="196.0" width="24" height="24" rx="6" fill="#3a9bff" class="cell" style="animation-delay:0.276s"/><rect x="757.0" y="225.0" width="24" height="24" rx="6" fill="#14899a" class="cell" style="animation-delay:0.276s"/><rect x="757.0" y="254.0" width="24" height="24" rx="6" fill="#0f4a55" class="cell" style="animation-delay:0.276s"/><rect x="757.0" y="283.0" width="24" height="24" rx="6" fill="#0f4a55" class="cell" style="animation-delay:0.276s"/><rect x="757.0" y="312.0" width="24" height="24" rx="6" fill="#14899a" class="cell" style="animation-delay:0.276s"/><rect x="757.0" y="341.0" width="24" height="24" rx="6" fill="#0f4a55" class="cell" style="animation-delay:0.276s"/><rect x="757.0" y="370.0" width="24" height="24" rx="6" fill="#0f4a55" class="cell" style="animation-delay:0.276s"/><rect x="786.0" y="196.0" width="24" height="24" rx="6" fill="#0f4a55" class="cell" style="animation-delay:0.288s"/><rect x="786.0" y="225.0" width="24" height="24" rx="6" fill="#0f4a55" class="cell" style="animation-delay:0.288s"/><rect x="786.0" y="254.0" width="24" height="24" rx="6" fill="#8b7bff" class="cell" style="animation-delay:0.288s"/><rect x="786.0" y="283.0" width="24" height="24" rx="6" fill="#3a9bff" class="cell" style="animation-delay:0.288s"/><rect x="786.0" y="312.0" width="24" height="24" rx="6" fill="#14899a" class="cell" style="animation-delay:0.288s"/><rect x="786.0" y="341.0" width="24" height="24" rx="6" fill="#3a9bff" class="cell" style="animation-delay:0.288s"/><rect x="786.0" y="370.0" width="24" height="24" rx="6" fill="#14899a" class="cell" style="animation-delay:0.288s"/><rect x="815.0" y="196.0" width="24" height="24" rx="6" fill="#14899a" class="cell" style="animation-delay:0.300s"/><rect x="815.0" y="225.0" width="24" height="24" rx="6" fill="#14899a" class="cell" style="animation-delay:0.300s"/><rect x="815.0" y="254.0" width="24" height="24" rx="6" fill="#3a9bff" class="cell" style="animation-delay:0.300s"/><rect x="815.0" y="283.0" width="24" height="24" rx="6" fill="#14899a" class="cell" style="animation-delay:0.300s"/>
  <g class="rise" style="animation-delay:.6s">
    <text class="t" x="90" y="418" fill="#8b96a3" font-size="12">last 26 weeks  ·  70 active days  ·  current streak 34  ·  longest streak 34  ·  busiest day 60</text>
    <text class="m" x="740" y="418" fill="#8b96a3" font-size="10" text-anchor="end">less</text>
    <rect x="770" y="409" width="10" height="10" rx="2.5" fill="#161b22"/><rect x="784" y="409" width="10" height="10" rx="2.5" fill="#0f4a55"/><rect x="798" y="409" width="10" height="10" rx="2.5" fill="#14899a"/><rect x="812" y="409" width="10" height="10" rx="2.5" fill="#3a9bff"/><rect x="826" y="409" width="10" height="10" rx="2.5" fill="#8b7bff"/>
    <text class="m" x="844" y="418" fill="#8b96a3" font-size="10">more</text>
  </g>
  <line x1="32" y1="453" x2="868" y2="453" stroke="#232b36"/>
  <text class="m" x="32" y="473" fill="#8b96a3" font-size="10.5" letter-spacing="1.8">LANGUAGES · SHARE OF CODE ACROSS ALL REPOSITORIES</text>
  <rect x="32" y="483" width="836" height="12" rx="6" fill="#161c24"/>
  <g clip-path="url(#bar)"><rect x="32.0" y="483" width="260.1" height="12" rx="3" fill="#3178c6"><animate attributeName="width" values="0;260.1" dur=".9s" begin="0.30s" fill="freeze" calcMode="spline" keySplines=".2 .7 .3 1"/></rect><rect x="294.1" y="483" width="234.9" height="12" rx="3" fill="#f1e05a"><animate attributeName="width" values="0;234.9" dur=".9s" begin="0.38s" fill="freeze" calcMode="spline" keySplines=".2 .7 .3 1"/></rect><rect x="531.1" y="483" width="102.0" height="12" rx="3" fill="#00ADD8"><animate attributeName="width" values="0;102.0" dur=".9s" begin="0.46s" fill="freeze" calcMode="spline" keySplines=".2 .7 .3 1"/></rect><rect x="635.0" y="483" width="90.9" height="12" rx="3" fill="#3572A5"><animate attributeName="width" values="0;90.9" dur=".9s" begin="0.54s" fill="freeze" calcMode="spline" keySplines=".2 .7 .3 1"/></rect><rect x="727.9" y="483" width="77.3" height="12" rx="3" fill="#dea584"><animate attributeName="width" values="0;77.3" dur=".9s" begin="0.62s" fill="freeze" calcMode="spline" keySplines=".2 .7 .3 1"/></rect><rect x="807.3" y="483" width="27.3" height="12" rx="3" fill="#A97BFF"><animate attributeName="width" values="0;27.3" dur=".9s" begin="0.70s" fill="freeze" calcMode="spline" keySplines=".2 .7 .3 1"/></rect><rect x="836.5" y="483" width="11.8" height="12" rx="3" fill="#89e051"><animate attributeName="width" values="0;11.8" dur=".9s" begin="0.78s" fill="freeze" calcMode="spline" keySplines=".2 .7 .3 1"/></rect><rect x="850.3" y="483" width="15.7" height="12" rx="3" fill="#8b949e"><animate attributeName="width" values="0;15.7" dur=".9s" begin="0.86s" fill="freeze" calcMode="spline" keySplines=".2 .7 .3 1"/></rect></g>
  <circle cx="37.0" cy="519" r="5" fill="#3178c6"/><text class="t" x="48.0" y="523" fill="#e8eef5" font-size="12.5">TypeScript <tspan fill="#8b96a3">31.4%</tspan></text><circle cx="182.2" cy="519" r="5" fill="#f1e05a"/><text class="t" x="193.2" y="523" fill="#e8eef5" font-size="12.5">JavaScript <tspan fill="#8b96a3">28.3%</tspan></text><circle cx="327.4" cy="519" r="5" fill="#00ADD8"/><text class="t" x="338.4" y="523" fill="#e8eef5" font-size="12.5">Go <tspan fill="#8b96a3">12.4%</tspan></text><circle cx="415.0" cy="519" r="5" fill="#3572A5"/><text class="t" x="426.0" y="523" fill="#e8eef5" font-size="12.5">Python <tspan fill="#8b96a3">11.1%</tspan></text><circle cx="531.4" cy="519" r="5" fill="#dea584"/><text class="t" x="542.4" y="523" fill="#e8eef5" font-size="12.5">Rust <tspan fill="#8b96a3">9.5%</tspan></text><circle cx="626.2" cy="519" r="5" fill="#A97BFF"/><text class="t" x="637.2" y="523" fill="#e8eef5" font-size="12.5">Kotlin <tspan fill="#8b96a3">3.5%</tspan></text><circle cx="735.4" cy="519" r="5" fill="#89e051"/><text class="t" x="746.4" y="523" fill="#e8eef5" font-size="12.5">Shell <tspan fill="#8b96a3">1.7%</tspan></text><circle cx="37.0" cy="543" r="5" fill="#8b949e"/><text class="t" x="48.0" y="547" fill="#e8eef5" font-size="12.5">Other <tspan fill="#8b96a3">2.1%</tspan></text>
</g>
<rect x=".5" y=".5" width="899" height="576" rx="18" fill="none" stroke="#232b36"/>
</svg>
